<?xml version="1.0" encoding="utf-8"?>
<!-- Generator: Adobe Illustrator 16.0.0, SVG Export Plug-In . SVG Version: 6.00 Build 0)  -->
<!DOCTYPE svg PUBLIC "-//W3C//DTD SVG 1.1//EN" "http://www.w3.org/Graphics/SVG/1.1/DTD/svg11.dtd">
<svg version="1.1" xmlns="http://www.w3.org/2000/svg" xmlns:xlink="http://www.w3.org/1999/xlink" x="0px" y="0px"
	 width="36.688px" height="36.875px" viewBox="0 0 36.688 36.875" enable-background="new 0 0 36.688 36.875" xml:space="preserve">
<g id="Слой_1">
	<g>
		<g>
			<path opacity="0.5" fill-rule="evenodd" clip-rule="evenodd" fill="#4F4F4F" d="M0.398,19.073c0-0.415,0-0.832,0-1.246
				c0.006-0.041,0.015-0.084,0.017-0.125c0.031-0.798,0.115-1.59,0.258-2.375c0.708-3.87,2.465-7.186,5.322-9.887
				c3.136-2.966,6.881-4.58,11.188-4.892c0.178-0.014,0.356-0.026,0.534-0.038c0.415,0,0.83,0,1.244,0
				C19,0.516,19.038,0.524,19.076,0.526c1,0.038,1.989,0.158,2.965,0.371c3.97,0.865,7.301,2.821,9.939,5.91
				c2.579,3.021,3.983,6.535,4.26,10.498c0.012,0.174,0.025,0.348,0.038,0.521c0,0.414,0,0.831,0,1.246
				c-0.006,0.041-0.015,0.083-0.016,0.125c-0.031,0.798-0.116,1.59-0.259,2.375c-0.707,3.869-2.465,7.185-5.322,9.887
				c-3.135,2.965-6.881,4.58-11.187,4.891c-0.178,0.015-0.356,0.027-0.534,0.039c-0.415,0-0.83,0-1.244,0
				c-0.039-0.006-0.077-0.014-0.116-0.016c-1-0.039-1.989-0.158-2.965-0.371c-3.97-0.865-7.301-2.822-9.938-5.91
				c-2.579-3.021-3.983-6.535-4.261-10.498C0.424,19.421,0.411,19.247,0.398,19.073z M16.489,17.651
				c0.025-0.027,0.036-0.047,0.053-0.056c0.276-0.143,0.533-0.312,0.778-0.506c0.246-0.194,0.44-0.428,0.603-0.688
				c0.251-0.406,0.395-0.849,0.458-1.324c0.046-0.352,0.051-0.699,0.04-1.049c-0.007-0.2-0.042-0.404-0.082-0.602
				c-0.032-0.156-0.093-0.306-0.134-0.461c-0.095-0.354-0.275-0.664-0.476-0.965c-0.279-0.418-0.649-0.745-1.074-1
				c-0.349-0.211-0.72-0.387-1.124-0.479c-0.225-0.051-0.448-0.109-0.673-0.156c-0.428-0.09-0.863-0.119-1.299-0.119
				c-2.496-0.002-4.992,0-7.488-0.002c-0.264,0-0.236,0-0.236,0.24c0.001,3.92,0.001,7.838,0,11.758c0,1.291-0.006,2.582-0.01,3.873
				c0,0.098,0.041,0.137,0.138,0.133c0.043,0,0.086-0.002,0.129-0.002c2.63-0.033,5.262,0.065,7.892-0.055
				c0.515-0.023,1.02-0.114,1.52-0.225c0.269-0.059,0.538-0.152,0.784-0.274c0.297-0.146,0.587-0.321,0.854-0.519
				c0.566-0.422,0.986-0.973,1.3-1.6c0.151-0.299,0.261-0.623,0.351-0.948c0.07-0.251,0.077-0.519,0.117-0.779
				c0.064-0.407,0.013-0.812-0.022-1.216c-0.019-0.207-0.092-0.41-0.144-0.611c-0.083-0.328-0.229-0.631-0.409-0.914
				c-0.397-0.624-0.951-1.063-1.635-1.342C16.631,17.737,16.566,17.692,16.489,17.651z M27.281,21.181v0.002
				c1.251,0,2.503,0,3.755,0c0.14,0,0.279-0.002,0.418,0.001c0.096,0.004,0.138-0.032,0.133-0.132
				c-0.005-0.122-0.005-0.242-0.003-0.364c0.002-0.237,0.018-0.472,0.01-0.708c-0.006-0.197-0.034-0.396-0.058-0.594
				c-0.038-0.318-0.059-0.641-0.125-0.954c-0.085-0.399-0.199-0.795-0.385-1.161c-0.154-0.305-0.322-0.605-0.508-0.893
				c-0.278-0.426-0.619-0.801-1.024-1.114c-0.343-0.263-0.705-0.493-1.109-0.651c-0.191-0.076-0.38-0.164-0.578-0.215
				c-0.316-0.083-0.636-0.149-0.958-0.205c-0.242-0.042-0.488-0.08-0.732-0.082c-0.423-0.002-0.848,0.024-1.271,0.047
				c-0.152,0.008-0.306,0.025-0.455,0.059c-0.19,0.039-0.38,0.092-0.564,0.154c-0.248,0.082-0.499,0.158-0.734,0.271
				c-0.283,0.135-0.561,0.287-0.823,0.461c-0.468,0.309-0.87,0.693-1.208,1.144c-0.504,0.669-0.824,1.421-1,2.237
				c-0.054,0.254-0.077,0.513-0.118,0.77c-0.049,0.309-0.084,0.621-0.072,0.936c0.013,0.328-0.004,0.657,0.02,0.982
				c0.024,0.33,0.066,0.66,0.131,0.984c0.07,0.349,0.159,0.695,0.269,1.033c0.216,0.658,0.579,1.236,1.075,1.717
				c0.242,0.236,0.522,0.434,0.795,0.633c0.181,0.133,0.375,0.248,0.575,0.35c0.222,0.113,0.455,0.209,0.688,0.302
				c0.213,0.085,0.428,0.175,0.649,0.231c0.257,0.066,0.523,0.1,0.785,0.147c0.092,0.015,0.184,0.038,0.275,0.038
				c0.407,0.01,0.814,0.031,1.219,0.008c0.361-0.019,0.721-0.083,1.079-0.141c0.171-0.027,0.337-0.083,0.505-0.129
				c0.122-0.033,0.248-0.063,0.365-0.111c0.177-0.07,0.353-0.148,0.519-0.241c0.263-0.147,0.534-0.288,0.772-0.471
				c0.262-0.201,0.505-0.431,0.732-0.669c0.51-0.535,0.904-1.142,1.077-1.874c0.032-0.135-0.005-0.188-0.142-0.188
				c-0.926,0-1.853,0.005-2.779-0.004c-0.151-0.002-0.232,0.057-0.298,0.174c-0.36,0.639-0.91,1.014-1.624,1.133
				c-0.307,0.051-0.626,0.038-0.939,0.04c-0.424,0.003-0.825-0.115-1.2-0.298c-0.331-0.163-0.615-0.398-0.846-0.691
				c-0.214-0.27-0.353-0.578-0.453-0.903c-0.087-0.284-0.122-0.577-0.144-0.874c-0.011-0.154,0.007-0.186,0.163-0.186
				C24.521,21.181,25.901,21.181,27.281,21.181z M25.532,12.765c1.105,0,2.21,0,3.315,0c0.136,0,0.146-0.014,0.146-0.146
				c-0.001-0.437-0.002-0.873,0-1.31c0.001-0.144-0.006-0.153-0.149-0.153c-2.195,0-4.391,0-6.587,0
				c-0.042,0-0.085,0.004-0.128,0.009c-0.072,0.008-0.101,0.043-0.1,0.121c0.005,0.423,0.003,0.845,0.003,1.267
				c0,0.203,0.007,0.211,0.218,0.213c0.053,0,0.107,0,0.161,0C23.451,12.765,24.492,12.765,25.532,12.765z"/>
			<path opacity="0.5" fill-rule="evenodd" clip-rule="evenodd" fill="#4F4F4F" d="M8.98,21.328c0-0.663,0.002-1.329-0.002-1.994
				c-0.001-0.111,0.046-0.147,0.145-0.149c0.064,0,0.129,0,0.193,0c1.27,0,2.539-0.008,3.808,0.003
				c0.269,0.002,0.54,0.044,0.805,0.093c0.225,0.043,0.454,0.098,0.662,0.189c0.291,0.127,0.534,0.326,0.704,0.604
				c0.27,0.439,0.324,0.924,0.28,1.424c-0.036,0.402-0.14,0.785-0.373,1.122c-0.152,0.22-0.344,0.396-0.583,0.524
				c-0.25,0.137-0.515,0.223-0.793,0.265c-0.214,0.031-0.431,0.063-0.646,0.064c-1.327,0.007-2.653,0.003-3.979,0.003
				c-0.025,0-0.05,0-0.075,0c-0.104,0.002-0.146-0.047-0.145-0.151c0.004-0.321,0.002-0.644,0.002-0.966c0-0.344,0-0.686,0-1.03
				C8.981,21.328,8.98,21.328,8.98,21.328z"/>
			<path opacity="0.5" fill-rule="evenodd" clip-rule="evenodd" fill="#4F4F4F" d="M11.092,13.017c0.647,0,1.295-0.007,1.941,0.004
				c0.237,0.004,0.475,0.051,0.71,0.085c0.165,0.024,0.329,0.054,0.49,0.095c0.236,0.059,0.439,0.178,0.61,0.354
				c0.165,0.166,0.268,0.369,0.338,0.588c0.035,0.106,0.052,0.223,0.052,0.334c0.001,0.266,0.019,0.533-0.028,0.791
				C15.15,15.579,15,15.86,14.741,16.063c-0.172,0.135-0.366,0.228-0.574,0.301c-0.298,0.104-0.601,0.168-0.917,0.172
				c-0.597,0.008-1.192,0.023-1.789,0.027c-0.755,0.004-1.509,0.001-2.263,0.001c-0.203,0-0.217-0.016-0.217-0.222
				c0-1.047,0-2.095,0-3.143c0-0.169,0.01-0.183,0.181-0.183C9.805,13.017,10.449,13.017,11.092,13.017L11.092,13.017z"/>
			<path opacity="0.5" fill-rule="evenodd" clip-rule="evenodd" fill="#4F4F4F" d="M25.723,19.158c-0.83,0-1.659,0-2.489,0
				c-0.169,0-0.187-0.03-0.159-0.195c0.075-0.449,0.23-0.867,0.47-1.254c0.219-0.354,0.513-0.632,0.888-0.813
				c0.229-0.111,0.466-0.203,0.729-0.215c0.191-0.006,0.382-0.052,0.573-0.053c0.307-0.002,0.606,0.053,0.905,0.135
				c0.397,0.11,0.729,0.322,1.023,0.596c0.209,0.197,0.373,0.434,0.477,0.704c0.081,0.211,0.146,0.426,0.205,0.643
				c0.028,0.104,0.029,0.218,0.034,0.327c0.004,0.095-0.042,0.126-0.156,0.126C27.389,19.158,26.556,19.158,25.723,19.158z"/>
		</g>
	</g>
</g>
<g id="Слой_2" display="none">
</g>
</svg>
