<?xml version="1.0" encoding="utf-8"?>
<!-- Generator: Adobe Illustrator 16.0.0, SVG Export Plug-In . SVG Version: 6.00 Build 0)  -->
<!DOCTYPE svg PUBLIC "-//W3C//DTD SVG 1.1//EN" "http://www.w3.org/Graphics/SVG/1.1/DTD/svg11.dtd">
<svg version="1.1" xmlns="http://www.w3.org/2000/svg" xmlns:xlink="http://www.w3.org/1999/xlink" x="0px" y="0px"
	 width="34.439px" height="35.879px" viewBox="0 0 34.439 35.879" enable-background="new 0 0 34.439 35.879" xml:space="preserve">
<g id="Слой_1">
	<g>
		<g opacity="0.5">
			<path fill-rule="evenodd" clip-rule="evenodd" fill="#4F4F4F" d="M0,18.303C-0.07,8.94,7.777,1.313,17.167,1.453
				c9.072,0.133,16.6,7.719,16.581,16.941c-0.02,9.345-7.625,16.826-17.088,16.807C7.482,35.184-0.009,27.582,0,18.303z
				 M18.341,23.15c-0.006,0-0.011,0-0.017,0c0-0.984-0.004-1.969,0-2.953c0.01-1.846,0.011-1.846,1.817-1.867
				c0.101-0.002,0.202-0.008,0.302-0.002c0.418,0.023,0.58-0.196,0.611-0.591c0.055-0.729,0.114-1.458,0.214-2.182
				c0.062-0.454-0.118-0.594-0.533-0.587c-0.605,0.01-1.212,0.021-1.815-0.018c-0.188-0.012-0.519-0.17-0.524-0.275
				c-0.033-0.676-0.033-1.359,0.052-2.029c0.021-0.16,0.392-0.348,0.627-0.395c0.517-0.102,1.049-0.142,1.578-0.168
				c0.467-0.022,0.688-0.216,0.679-0.696c-0.015-0.681-0.022-1.364,0.004-2.044c0.021-0.57-0.247-0.764-0.779-0.736
				c-0.881,0.044-1.763,0.09-2.644,0.096c-1.699,0.014-3.401,1.354-3.47,3.225c-0.029,0.757-0.098,1.514-0.069,2.268
				c0.021,0.607-0.208,0.834-0.788,0.775c-0.175-0.016-0.355,0.01-0.53,0c-0.474-0.031-0.696,0.158-0.669,0.66
				c0.027,0.554,0.004,1.109,0.005,1.664c0.003,1.018,0.005,1.063,1.049,1.018c0.737-0.033,0.945,0.225,0.935,0.947
				c-0.038,2.65-0.004,5.301-0.024,7.95c-0.004,0.569,0.147,0.833,0.766,0.798c0.804-0.043,1.616-0.043,2.422,0
				c0.649,0.035,0.824-0.244,0.81-0.846C18.32,25.824,18.341,24.488,18.341,23.15z"/>
		</g>
	</g>
</g>
<g id="Слой_2" display="none">
</g>
</svg>
