<?xml version="1.0" encoding="utf-8"?>
<!-- Generator: Adobe Illustrator 16.0.0, SVG Export Plug-In . SVG Version: 6.00 Build 0)  -->
<!DOCTYPE svg PUBLIC "-//W3C//DTD SVG 1.1//EN" "http://www.w3.org/Graphics/SVG/1.1/DTD/svg11.dtd">
<svg version="1.1" xmlns="http://www.w3.org/2000/svg" xmlns:xlink="http://www.w3.org/1999/xlink" x="0px" y="0px"
	 width="34.958px" height="35.879px" viewBox="0 0 34.958 35.879" enable-background="new 0 0 34.958 35.879" xml:space="preserve">
<g id="Слой_1">
	<g>
		<g opacity="0.5">
			<path fill-rule="evenodd" clip-rule="evenodd" fill="#4F4F4F" d="M17.4,1.459c-9.314,0-16.868,7.552-16.868,16.866
				c0,9.318,7.553,16.87,16.868,16.87c9.318,0,16.871-7.552,16.871-16.87C34.271,9.011,26.718,1.459,17.4,1.459z M25.271,16.254
				c-0.993,3.49-2.6,5.964-5.039,8.072c-0.913,0.789-2.027,1.806-3.374,1.879c-0.855,0.051-1.423-0.352-1.836-0.854
				c-1.354-1.65-1.491-5.112-2.264-7.476c-0.215-0.658-0.651-1.865-1.241-1.963c-0.748-0.121-0.898,0.675-1.494,0.641
				c-0.322-0.021-0.622-0.49-0.64-0.725c-0.023-0.311,0.286-0.768,0.554-1.068c0.699-0.783,2.644-2.381,3.846-2.69
				c2.862-0.745,2.885,2.677,3.074,4.954c0.135,1.624,0.31,3.1,1.496,3.928c0.646-0.482,1.31-1.09,1.877-2.048
				c0.377-0.64,1.096-2.147,0.642-3.075c-0.304-0.621-1.396-0.375-2.135-0.257c0.157-2.196,2.331-3.775,4.396-3.802
				c1.432-0.018,2.595,0.945,2.649,2.348C25.81,14.766,25.472,15.55,25.271,16.254z"/>
		</g>
	</g>
</g>
<g id="Слой_2" display="none">
</g>
</svg>
