<?xml version="1.0" encoding="utf-8"?>
<!-- Generator: Adobe Illustrator 15.0.2, SVG Export Plug-In . SVG Version: 6.00 Build 0)  -->
<!DOCTYPE svg PUBLIC "-//W3C//DTD SVG 1.1//EN" "http://www.w3.org/Graphics/SVG/1.1/DTD/svg11.dtd">
<svg version="1.1" id="Слой_1" xmlns="http://www.w3.org/2000/svg" xmlns:xlink="http://www.w3.org/1999/xlink" x="0px" y="0px"
	 width="54.896px" height="28.074px" viewBox="0 0 54.896 28.074" enable-background="new 0 0 54.896 28.074" xml:space="preserve">
<g id="Слой_1_1_">
	<g>
		<g>
			<g>
				<g>
					<path fill="#6D6C6C" d="M43.362,0.995c-0.757-0.129-1.534-0.197-2.31-0.197c-1.297,0-2.546,0.159-3.71,0.468
						c-0.171,0.046-0.35,0.099-0.531,0.153c-0.024,0.008-0.045,0.015-0.066,0.021c-0.995,0.316-1.944,0.744-2.885,1.305
						c-0.927,0.551-1.842,1.234-2.779,2.063c-0.067,0.059-0.134,0.118-0.2,0.179c-0.476,0.431-0.966,0.905-1.489,1.444
						c-0.007,0.008-0.016,0.018-0.023,0.024l0.595,1.423c0.393,0.966,0.907,2.177,1.948,4.59c0.013,0.032,0.025,0.063,0.04,0.092
						l0.412,0.957c2.146,4.958,4.64,7.841,8.062,9.118c1.293-0.169,2.771-0.496,4.061-1.042c-2.788-0.117-4.815-0.871-6.474-2.417
						c-1.642-1.529-2.985-3.831-4.638-7.942c-0.253-0.629-0.462-1.17-0.686-1.747c-0.31-0.802-0.632-1.632-1.125-2.849
						c0.02-0.019,0.04-0.037,0.061-0.057c0.835-0.76,1.65-1.384,2.494-1.904c1.052-0.652,2.113-1.125,3.244-1.445
						c1.121-0.32,2.318-0.479,3.559-0.479c0.044,0,0.09-0.001,0.135,0c3.289,0.073,6.328,1.535,8.806,4.485
						c0,0,1.157,1.563,1.57,2.332l0.001,0.005l0.02,0.038c0.806,1.535,1.216,3.135,1.216,4.758c0,1.663-0.348,3.272-1.026,4.778
						c-0.126,0.281-0.264,0.558-0.414,0.823c-0.01,0.007-0.02,0.012-0.029,0.019c-0.028,0.049-0.058,0.097-0.085,0.144
						c-0.621,1.035-1.383,1.99-2.262,2.825c0.009-0.003,0.017-0.005,0.025-0.008c-0.005,0.005-0.012,0.011-0.015,0.015
						c-1.47,1.338-3.265,2.276-5.189,2.721c-0.855,0.197-1.737,0.297-2.62,0.297c-3.209,0-5.446-0.752-7.259-2.44
						c-1.643-1.529-2.986-3.828-4.638-7.941c-0.252-0.629-0.463-1.172-0.687-1.747c-0.313-0.81-0.639-1.648-1.143-2.886
						c-0.188-0.468-0.387-0.948-0.604-1.47c-0.204-0.488-0.422-1.01-0.649-1.548c-0.036-0.083-0.072-0.166-0.111-0.252l-0.051-0.052
						V7.586c-1.591-3.431-4.888-6.022-8.83-6.938l-0.015-0.006c-0.003,0-0.004,0-0.007,0l-0.012-0.003
						c-0.229-0.052-0.463-0.101-0.698-0.143c-0.821-0.146-1.663-0.22-2.506-0.22c-1.149,0-2.29,0.145-3.393,0.43
						c-0.186,0.047-0.371,0.099-0.555,0.154C8.669,1.234,7.505,1.781,6.438,2.478c-1.488,0.97-2.786,2.236-3.802,3.72L2.579,6.28
						C2.531,6.349,2.485,6.42,2.441,6.491C2.008,7.159,1.637,7.864,1.33,8.597C1.269,8.742,1.209,8.892,1.155,9.038
						c-0.582,1.534-0.878,3.15-0.878,4.805c0,4.363,2.122,8.494,5.679,11.045l0.585,0.421c0.043,0.026,0.086,0.055,0.129,0.081
						c0.048,0.031,0.095,0.06,0.144,0.088c0.065,0.039,0.145,0.086,0.222,0.132c0.042,0.024,0.081,0.046,0.119,0.066l0.004,0.003
						c0.022,0.012,0.044,0.026,0.068,0.039c0.039,0.021,0.075,0.043,0.114,0.063l0.082,0.047c0.047,0.025,0.097,0.053,0.146,0.077
						l0.042,0.021c0.052,0.028,0.106,0.055,0.159,0.082l0.029,0.016c0.051,0.023,0.102,0.05,0.154,0.074l0.007,0.001
						c0.017,0.01,0.038,0.019,0.056,0.028l0.008,0.005c0.059,0.025,0.115,0.054,0.182,0.081c0.055,0.026,0.105,0.051,0.158,0.073
						c0.056,0.024,0.112,0.05,0.167,0.071l0.005,0.001c0.02,0.013,0.042,0.019,0.064,0.029l0.027,0.011
						c0.042,0.019,0.087,0.036,0.132,0.054c0.02,0.01,0.041,0.017,0.06,0.025c0.063,0.024,0.117,0.045,0.174,0.066
						c0.069,0.026,0.14,0.053,0.211,0.078c0.036,0.014,0.067,0.024,0.102,0.036c0.069,0.025,0.14,0.05,0.207,0.072
						c0.109,0.036,0.218,0.07,0.323,0.104l0.019,0.006c0.027,0.01,0.054,0.018,0.084,0.024c0.036,0.013,0.071,0.021,0.106,0.031
						c0.033,0.01,0.062,0.019,0.089,0.025l0.016,0.005c0.072,0.021,0.146,0.041,0.221,0.06c0.072,0.021,0.146,0.039,0.216,0.057
						l0.009,0.001c0.01,0.003,0.016,0.006,0.025,0.007l0.004,0.003c0.046,0.01,0.087,0.021,0.132,0.031h0.008
						c0.039,0.01,0.08,0.018,0.12,0.025c0.089,0.022,0.176,0.038,0.263,0.059c0.024,0.003,0.048,0.007,0.071,0.014l0.06,0.011
						c0.046,0.01,0.094,0.02,0.142,0.027l0.114,0.021c0.055,0.011,0.107,0.02,0.157,0.026c0.082,0.012,0.165,0.024,0.248,0.036
						c0.049,0.007,0.095,0.013,0.142,0.021c0.079,0.011,0.162,0.019,0.242,0.029h0.011c0.049,0.006,0.1,0.012,0.148,0.017
						l0.134,0.014c0.043,0.004,0.086,0.008,0.13,0.01c0.036,0.003,0.067,0.005,0.1,0.006l0.009,0.002c0.002,0,0.005,0,0.008,0
						c0.023,0.004,0.052,0.005,0.076,0.006h0.005c0.114,0.01,0.232,0.017,0.351,0.02c0.035,0.003,0.069,0.003,0.103,0.005h0.007
						c0.016,0,0.03,0,0.047,0.002h0.005c0.033,0.002,0.064,0.002,0.098,0.002h0.002c0.088,0.002,0.185,0.004,0.291,0.004
						c0.051,0,0.103,0,0.152-0.002c0.04,0,0.082,0,0.121-0.001l0.109-0.003c0.035-0.002,0.071-0.002,0.107-0.004
						c0.079-0.003,0.159-0.006,0.24-0.011c0.042-0.002,0.083-0.005,0.122-0.008c0.036-0.002,0.072-0.005,0.11-0.006
						c0.004,0,0.01-0.002,0.016-0.002L14.84,27.4c0.032-0.002,0.066-0.005,0.1-0.008c0.081-0.006,0.163-0.012,0.241-0.021
						l0.038-0.005c0.022-0.003,0.043-0.004,0.063-0.007c0.065-0.097,0.129-0.194,0.19-0.295c0.354-0.569,0.669-1.168,0.933-1.785
						c0.717-1.668,1.079-3.444,1.079-5.287c0-6.628-4.733-12.255-11.257-13.374c-0.445-0.075-0.893-0.13-1.344-0.162
						c0.205-0.248,0.421-0.488,0.646-0.72c0.035-0.035,0.069-0.069,0.103-0.105c0.684-0.68,1.44-1.27,2.259-1.76
						c0.96-0.574,1.999-1.008,3.09-1.285c0.93-0.235,1.895-0.355,2.864-0.355c2.311,0,4.537,0.617,6.442,1.787
						C22.245,5.219,23.68,6.9,24.44,8.883c0.146,0.385,0.274,0.721,0.391,1.023c0.818,2.143,0.988,2.588,2.862,6.93
						c0.015,0.03,0.025,0.061,0.038,0.09l0.413,0.956c3.046,7.044,6.788,9.916,12.908,9.916c3.199,0,6.301-1.109,8.731-3.125
						c1.172-0.971,2.172-2.139,2.947-3.435c0.307-0.509,0.578-1.036,0.813-1.581c0.324-0.761,0.578-1.543,0.757-2.348
						c0.213-0.956,0.319-1.938,0.319-2.938C54.619,7.739,49.885,2.115,43.362,0.995z M12.699,12.882l0.087,0.084v0.018
						c0.591,0.697,1.096,1.441,1.505,2.21l0.004,0.004l0.018,0.037c0.806,1.535,1.217,3.136,1.217,4.758
						c0,1.666-0.347,3.271-1.028,4.779c-0.11,0.247-0.23,0.486-0.357,0.724l-0.025-0.031c-1.73-0.023-3.478-0.433-5.062-1.189
						c-1.584-0.756-3.013-1.858-4.131-3.189c-0.305-0.36-0.585-0.737-0.843-1.128c-0.001-0.004-0.003-0.01-0.004-0.011
						c-0.095-0.143-0.184-0.284-0.271-0.432C3.807,19.512,3.801,19.505,3.8,19.5c-0.086-0.146-0.17-0.295-0.25-0.444
						c-0.874-1.632-1.318-3.388-1.318-5.212c0-1.906,0.472-3.796,1.365-5.467c0.062,0,0.124-0.002,0.186-0.002
						c0.044,0,0.088,0,0.135,0.002C6.905,8.402,10.353,10.172,12.699,12.882z"/>
					<path fill="#6D6C6C" d="M3.352,8.245c-0.914,1.713-1.399,3.648-1.399,5.598c0,1.869,0.455,3.668,1.352,5.344
						c0.082,0.152,0.168,0.303,0.265,0.469c0.076,0.127,0.153,0.253,0.256,0.405l0.027,0.048c0.271,0.413,0.562,0.801,0.858,1.152
						c1.146,1.361,2.606,2.491,4.225,3.264c1.577,0.755,3.32,1.173,5.047,1.214l0.207,0.253l0.196-0.364
						c0.13-0.241,0.254-0.488,0.366-0.739c0.697-1.544,1.054-3.189,1.054-4.895c0-1.667-0.422-3.311-1.265-4.916l-0.023-0.045
						c-0.401-0.75-0.892-1.471-1.457-2.149l-0.154-0.181c-2.397-2.77-5.926-4.576-8.978-4.602c-0.049-0.003-0.1-0.003-0.147-0.003
						L3.431,8.099L3.352,8.245z M3.782,8.652c0.032-0.002,0.078-0.001,0.133,0c2.911,0.027,6.277,1.758,8.591,4.428l0.068,0.083
						c0.575,0.681,1.07,1.404,1.494,2.201c0.785,1.496,1.184,3.055,1.184,4.629c0,1.625-0.337,3.193-1.003,4.666
						c-0.079,0.18-0.164,0.354-0.254,0.525c-1.649-0.039-3.313-0.438-4.82-1.158c-1.548-0.742-2.945-1.818-4.038-3.121
						c-0.278-0.328-0.549-0.688-0.805-1.073L4.31,19.794c-0.093-0.139-0.179-0.275-0.272-0.434
						c-0.083-0.145-0.167-0.289-0.244-0.434c-0.854-1.598-1.286-3.309-1.286-5.084c0-1.805,0.436-3.596,1.259-5.191L3.782,8.652
						L3.782,8.652z"/>
					<path fill="#6D6C6C" d="M43.409,0.723c-2.088-0.356-4.237-0.228-6.138,0.276c-0.174,0.047-0.357,0.1-0.535,0.154
						c-0.028,0.008-0.058,0.018-0.076,0.024c-1.019,0.323-1.98,0.757-2.94,1.329c-0.939,0.559-1.863,1.244-2.836,2.107l-0.188,0.166
						c-0.479,0.434-0.972,0.911-1.531,1.486l-0.12,0.133l0.66,1.586c0.378,0.93,0.853,2.049,1.951,4.592l0.453,1.051
						c2.078,4.807,4.475,7.69,7.709,9.077c0.376-0.036,0.774-0.088,1.185-0.151c-3.603-1.155-6.171-4.025-8.387-9.146l-0.451-1.048
						c-1.098-2.543-1.571-3.656-1.947-4.588l-0.525-1.254c0.483-0.494,0.934-0.93,1.375-1.328l0.194-0.174
						c0.934-0.826,1.83-1.491,2.739-2.033c0.923-0.551,1.848-0.968,2.825-1.276l0.065-0.022c0.179-0.054,0.354-0.104,0.521-0.149
						c1.826-0.487,3.893-0.611,5.903-0.266c6.39,1.093,11.028,6.605,11.028,13.1c0,0.979-0.105,1.947-0.313,2.88
						c-0.175,0.78-0.425,1.557-0.743,2.299c-0.225,0.523-0.491,1.046-0.793,1.547c-0.765,1.279-1.736,2.41-2.887,3.363
						c-2.381,1.976-5.42,3.063-8.556,3.063c-5.993,0-9.659-2.825-12.655-9.749l-0.448-1.046c-1.881-4.354-2.05-4.796-2.859-6.92
						l-0.392-1.024c-0.78-2.039-2.258-3.768-4.266-5.002c-1.951-1.195-4.226-1.827-6.588-1.827c-0.994,0-1.98,0.124-2.933,0.364
						C9.8,2.598,8.735,3.042,7.747,3.633C6.913,4.132,6.136,4.738,5.433,5.44L5.329,5.543C5.098,5.782,4.876,6.032,4.67,6.28
						L4.327,6.694l0.536,0.038c0.444,0.031,0.886,0.085,1.313,0.16c6.392,1.096,11.028,6.605,11.028,13.102
						c0,1.805-0.354,3.548-1.056,5.179c-0.255,0.594-0.563,1.182-0.916,1.75c-0.036,0.06-0.074,0.119-0.112,0.178l-0.321,0.028
						c-0.043,0.001-0.083,0.003-0.112,0.006l-0.843,0.025c-0.104,0-0.2-0.002-0.314-0.003l-0.081-0.001v0.275l-0.066-0.279
						l-0.08-0.004c-0.115-0.004-0.229-0.01-0.366-0.019l-0.015,0.274l-0.069-0.28l-1.575-0.21c-0.029-0.009-0.058-0.014-0.105-0.021
						c-0.073-0.015-0.148-0.03-0.238-0.053l-0.494-0.12c-0.071-0.019-0.141-0.037-0.259-0.07L9.916,26.57
						c-0.102-0.032-0.208-0.065-0.316-0.104c-0.066-0.021-0.133-0.046-0.206-0.07l-0.065-0.021l-0.093,0.259l0.021-0.286
						L8.701,26.13l-0.104,0.256l0.042-0.283L7.17,25.367c-0.074-0.043-0.15-0.088-0.219-0.13c-0.046-0.025-0.089-0.054-0.137-0.084
						l-0.698-0.49c-3.483-2.5-5.563-6.546-5.563-10.82c0-1.619,0.29-3.201,0.858-4.707c0.055-0.145,0.112-0.289,0.174-0.434
						c0.3-0.717,0.666-1.409,1.089-2.064c0.044-0.066,0.088-0.135,0.134-0.201l0.057-0.084C3.858,4.9,5.111,3.673,6.591,2.708
						c1.055-0.689,2.194-1.222,3.387-1.582c0.18-0.057,0.361-0.106,0.544-0.153c1.87-0.481,3.868-0.544,5.779-0.204
						c0.23,0.041,0.461,0.088,0.717,0.146c3.837,0.892,7.054,3.406,8.618,6.732v0.112l0.079,0.081l0.104,0.217
						c0.228,0.538,0.445,1.058,0.648,1.547c0.217,0.522,0.414,1,0.604,1.467c0.503,1.234,0.826,2.072,1.142,2.881
						c0.221,0.577,0.434,1.123,0.687,1.752c1.666,4.149,3.031,6.479,4.706,8.04c1.867,1.739,4.163,2.517,7.447,2.517
						c0.906,0,1.809-0.104,2.683-0.304c1.97-0.455,3.807-1.418,5.326-2.799l0.731-0.659l-0.124,0.022
						c0.635-0.688,1.199-1.44,1.682-2.247l0.118-0.167c0.151-0.271,0.293-0.555,0.423-0.845c0.698-1.542,1.053-3.189,1.053-4.895
						c0-1.666-0.42-3.311-1.271-4.929c-0.415-0.778-1.544-2.301-1.601-2.379C47.616,4.137,44.5,2.552,41.01,2.476h-0.09
						c-1.268,0-2.489,0.164-3.635,0.489c-1.159,0.329-2.242,0.813-3.314,1.478c-0.856,0.529-1.685,1.162-2.55,1.949l-0.184,0.182
						l0.069,0.17c0.491,1.215,0.813,2.041,1.124,2.842l0.027,0.075c0.214,0.549,0.416,1.073,0.658,1.676
						c1.667,4.148,3.03,6.48,4.706,8.044c1.587,1.477,3.492,2.254,6.043,2.455c0.337-0.12,0.662-0.257,0.975-0.406
						c-0.007-0.016-0.008-0.036-0.029-0.052c-0.03-0.022-0.066-0.038-0.1-0.059c-2.83-0.086-4.864-0.811-6.513-2.344
						c-1.612-1.504-2.934-3.776-4.568-7.846c-0.242-0.601-0.443-1.121-0.655-1.669l-0.029-0.075
						c-0.295-0.764-0.601-1.551-1.055-2.674c0.795-0.716,1.571-1.306,2.371-1.801c1.028-0.636,2.066-1.1,3.175-1.416
						c1.095-0.31,2.266-0.467,3.53-0.467l-0.003-0.276l0.085,0.276c3.274,0.072,6.248,1.59,8.591,4.373
						c0.011,0.016,1.15,1.555,1.567,2.34c0.783,1.496,1.183,3.054,1.183,4.628c0,1.625-0.338,3.195-1.002,4.666
						c-0.114,0.255-0.239,0.505-0.37,0.74l-0.144,0.217c-0.609,1.018-1.354,1.948-2.215,2.768l-0.285,0.268
						c-1.376,1.163-3.014,1.986-4.764,2.392c-0.832,0.19-1.692,0.289-2.558,0.289c-3.132,0-5.313-0.73-7.071-2.367
						c-1.611-1.502-2.935-3.773-4.569-7.843c-0.251-0.629-0.462-1.169-0.684-1.744c-0.314-0.812-0.64-1.651-1.145-2.89
						c-0.189-0.468-0.389-0.95-0.604-1.471c-0.203-0.49-0.423-1.012-0.67-1.598l-0.146-0.326c-1.626-3.508-4.998-6.159-9.053-7.1
						c-0.231-0.055-0.472-0.104-0.713-0.146c-1.988-0.353-4.067-0.289-6.015,0.212c-0.19,0.049-0.379,0.104-0.567,0.16
						c-1.239,0.378-2.428,0.933-3.526,1.65c-1.54,1.006-2.846,2.283-3.88,3.795L2.352,6.126C2.301,6.198,2.253,6.271,2.209,6.342
						C1.771,7.019,1.388,7.743,1.076,8.488C1.012,8.64,0.952,8.79,0.895,8.941C0.302,10.508,0,12.158,0,13.843
						c0,4.453,2.167,8.665,5.793,11.27l0.601,0.431l0.128,0.081c0.051,0.031,0.102,0.063,0.146,0.091
						c0.067,0.04,0.148,0.09,0.225,0.132l0.128,0.073l0.001-0.003l0.803,0.421v0.002l0.59,0.269c0.023,0.013,0.05,0.022,0.081,0.036
						L8.6,26.389l-0.037,0.282L8.89,26.8c0.058,0.022,0.116,0.045,0.175,0.065l0.146,0.054c0.074,0.026,0.145,0.051,0.215,0.073
						c0.11,0.037,0.222,0.072,0.34,0.109l0.305,0.09c0.075,0.021,0.154,0.042,0.227,0.063l0.521,0.125
						c0.082,0.02,0.164,0.036,0.272,0.059l1.735,0.235c0.025,0.004,0.053,0.005,0.098,0.007c0.117,0.01,0.239,0.015,0.35,0.02
						l0.094,0.006l0.029-0.276l0.043,0.277l0.108,0.002c0.089,0.004,0.187,0.005,0.298,0.005l0.562-0.012
						c0.062-0.004,0.126-0.005,0.226-0.012l0.578-0.043l0.006-0.28l0.086,0.27l0.131-0.01l0.074-0.11
						c0.067-0.1,0.134-0.202,0.198-0.304c0.366-0.59,0.687-1.203,0.951-1.823c0.731-1.7,1.103-3.517,1.103-5.396
						c0-6.765-4.831-12.505-11.487-13.647C5.999,6.3,5.723,6.261,5.444,6.23c0.092-0.101,0.185-0.202,0.279-0.299l0.103-0.104
						c0.667-0.666,1.41-1.243,2.207-1.719c0.941-0.563,1.956-0.985,3.015-1.253c0.907-0.232,1.849-0.348,2.797-0.348
						c2.259,0,4.438,0.603,6.297,1.746c1.907,1.169,3.303,2.804,4.04,4.729l0.393,1.021c0.813,2.133,0.982,2.578,2.864,6.942
						l0.453,1.045c3.098,7.162,6.912,10.084,13.161,10.084c3.266,0,6.429-1.134,8.909-3.19c1.197-0.994,2.21-2.172,3.008-3.504
						c0.313-0.523,0.592-1.067,0.827-1.614c0.332-0.774,0.593-1.581,0.773-2.396c0.216-0.972,0.326-1.979,0.326-2.998
						C54.896,7.606,50.064,1.864,43.409,0.723z"/>
				</g>
				<path fill="#6D6C6C" d="M44.811,21.377c-0.002-0.001-0.003-0.002-0.004-0.002l-4.22,0.712l-0.769,0.615
					c0,0,2.583,0.731,5.021-1.203C44.858,21.457,44.862,21.413,44.811,21.377z"/>
			</g>
		</g>
	</g>
</g>
<g id="Слой_2" display="none">
</g>
</svg>
